<?xml version="1.0" encoding="utf-8"?>
<!-- Generator: Adobe Illustrator 22.0.0, SVG Export Plug-In . SVG Version: 6.00 Build 0)  -->
<svg version="1.1" id="Layer_1" xmlns="http://www.w3.org/2000/svg" xmlns:xlink="http://www.w3.org/1999/xlink" x="0px" y="0px"
	 viewBox="0 0 1440 1920" style="enable-background:new 0 0 1440 1920;" xml:space="preserve">
<style type="text/css">
	.st0{fill:url(#XMLID_2_);}
	.st1{clip-path:url(#XMLID_3_);fill:none;stroke:#FFFFFF;stroke-width:3.9516;stroke-miterlimit:10;}
</style>
<g>
	<g>
		
			<radialGradient id="XMLID_2_" cx="-171.8811" cy="-178.5709" r="2583.4231" gradientTransform="matrix(6.145218e-17 0.8921 -1.0036 5.462416e-17 1680.4299 401.2383)" gradientUnits="userSpaceOnUse">
			<stop  offset="0" style="stop-color:#47878C"/>
			<stop  offset="0.9946" style="stop-color:#396F73"/>
		</radialGradient>
		<polygon id="XMLID_157_" class="st0" points="0,1920 0,0 1440,0 1440,1920 		"/>
		<g id="XMLID_832_">
			<defs>
				
					<rect id="XMLID_818_" x="-240" y="240" transform="matrix(-1.836970e-16 1 -1 -1.836970e-16 1680 240)" width="1920" height="1440"/>
			</defs>
			<clipPath id="XMLID_3_">
				<use xlink:href="#XMLID_818_"  style="overflow:visible;"/>
			</clipPath>
			<path id="XMLID_827_" class="st1" d="M2364.2,482.6c0,0-607.4,266-1370.7-117S-333.9,528.2-338.4,1261.4"/>
			<path id="XMLID_817_" class="st1" d="M2179.8,660.1c0,0-402.4,272.3-871.9,30.5C838.3,448.7,316,89-155.5,1076.7"/>
			<path id="XMLID_814_" class="st1" d="M-867.4,793.2C-857.2,783-522.2-222.9,189.4,57.4C901,337.7,1222,123.9,1611.9-477.4"/>
			<path id="XMLID_839_" class="st1" d="M2617.7,2679.1c0,0-662.8,20.2-1228.1-619.9S97.4,1714.9-180.3,2393.5"/>
			<path id="XMLID_833_" class="st1" d="M-144.1,2036.2c13.2-5.6,637.4-986.8,1193.1-461.3s933.3,446.9,1519.3,34.4"/>
		</g>
	</g>
</g>
</svg>
